<svg data-v-fde0c5aa="" xmlns="http://www.w3.org/2000/svg" viewBox="0 0 300 300" class="iconAbove"><!----><defs data-v-fde0c5aa=""><!----></defs><!----><defs data-v-fde0c5aa=""><linearGradient data-v-fde0c5aa="" gradientTransform="rotate(25)" id="e44d282e-3461-4f3b-866a-a1377532af3e" x1="0%" y1="0%" x2="100%" y2="0%"><stop data-v-fde0c5aa="" offset="0%" stop-color="#13505B" stop-opacity="1"></stop><stop data-v-fde0c5aa="" offset="100%" stop-color="#2EBFA5" stop-opacity="1"></stop></linearGradient></defs><g data-v-fde0c5aa="" id="d4b591ea-a3db-4964-980c-e872e57d3ce6" fill="url(#e44d282e-3461-4f3b-866a-a1377532af3e)" transform="matrix(4.325403383130649,0,0,4.325403383130649,17.36150387441491,153.61487122049243)"><path d="M7.11 14.40L0.64 14.40L0.70 14L1.84 13.74L1.84 6.55L0.61 6.29L0.67 5.89L4.10 5.89L4.05 6.29L2.86 6.52L2.86 13.88L6.19 13.88L6.90 12.07L7.34 12.13L7.11 14.40ZM9.34 9.92L9.34 9.92L9.34 9.92Q9.34 10.63 9.52 11.39L9.52 11.39L9.52 11.39Q9.71 12.14 10.06 12.73L10.06 12.73L10.06 12.73Q10.41 13.32 10.98 13.66L10.98 13.66L10.98 13.66Q11.55 14 12.21 14L12.21 14L12.21 14Q12.87 14 13.34 13.79L13.34 13.79L13.34 13.79Q14.21 13.41 14.63 12.49L14.63 12.49L14.63 12.49Q15.05 11.56 15.05 10.44L15.05 10.44L15.05 10.44Q15.05 9.31 14.72 8.36L14.72 8.36L14.72 8.36Q14.40 7.41 13.72 6.81L13.72 6.81L13.72 6.81Q13.04 6.21 12.09 6.21L12.09 6.21L12.09 6.21Q10.41 6.21 9.72 7.74L9.72 7.74L9.72 7.74Q9.34 8.60 9.34 9.92ZM9.98 13.98L9.98 13.98L9.98 13.98Q9.12 13.38 8.66 12.38L8.66 12.38L8.66 12.38Q8.20 11.38 8.20 10.11L8.20 10.11L8.20 10.11Q8.20 8.85 8.71 7.83L8.71 7.83L8.71 7.83Q9.21 6.82 10.18 6.25L10.18 6.25L10.18 6.25Q11.15 5.69 12.43 5.69L12.43 5.69L12.43 5.69Q13.31 5.69 14.03 6.04L14.03 6.04L14.03 6.04Q14.75 6.38 15.21 6.99L15.21 6.99L15.21 6.99Q16.18 8.25 16.18 10.13L16.18 10.13L16.18 10.13Q16.18 11.54 15.47 12.70L15.47 12.70L15.47 12.70Q14.32 14.58 11.81 14.58L11.81 14.58L11.81 14.58Q10.85 14.58 9.98 13.98ZM23.65 14.40L17.18 14.40L17.23 14L18.38 13.74L18.38 6.55L17.14 6.29L17.21 5.89L20.64 5.89L20.59 6.29L19.39 6.52L19.39 13.88L22.72 13.88L23.44 12.07L23.88 12.13L23.65 14.40ZM28.30 13.44L28.30 13.44L28.30 13.44Q27.79 12.91 27.50 12.10L27.50 12.10L27.50 12.10Q27.21 11.29 27.21 10.48L27.21 10.48L27.21 10.48Q27.21 9.68 27.36 9.05L27.36 9.05L27.36 9.05Q27.51 8.42 27.84 7.82L27.84 7.82L27.84 7.82Q28.16 7.21 28.63 6.75L28.63 6.75L28.63 6.75Q29.10 6.28 29.80 6.00L29.80 6.00L29.80 6.00Q30.50 5.71 31.33 5.71L31.33 5.71L31.33 5.71Q32.84 5.71 33.73 6.39L33.73 6.39L33.52 8.68L33.05 8.61L32.81 6.97L32.81 6.97Q32.23 6.23 31.05 6.23L31.05 6.23L31.05 6.23Q29.86 6.23 29.09 7.27L29.09 7.27L29.09 7.27Q28.32 8.31 28.32 10.04L28.32 10.04L28.32 10.04Q28.32 11.78 29.19 12.80L29.19 12.80L29.19 12.80Q30.05 13.82 31.44 13.82L31.44 13.82L31.44 13.82Q32.12 13.82 32.76 13.49L32.76 13.49L32.76 13.49Q33.39 13.17 33.88 12.67L33.88 12.67L34.08 13.06L34.08 13.06Q33.65 13.64 32.80 14.10L32.80 14.10L32.80 14.10Q31.96 14.57 31.07 14.57L31.07 14.57L31.07 14.57Q30.18 14.57 29.50 14.27L29.50 14.27L29.50 14.27Q28.81 13.98 28.30 13.44ZM35.89 6.51L34.64 6.28L34.69 5.89L38.12 5.89L38.06 6.28L36.91 6.49L36.91 9.80L41.51 9.80L41.51 6.51L40.26 6.28L40.32 5.89L43.74 5.89L43.67 6.28L42.53 6.49L42.53 13.78L43.78 13.97L43.72 14.40L40.31 14.40L40.38 14L41.51 13.74L41.51 10.35L36.91 10.36L36.91 13.78L38.18 13.97L38.10 14.40L34.70 14.40L34.74 14L35.89 13.74L35.89 6.51ZM48.38 7.15L47.06 10.75L49.61 10.75L48.38 7.15ZM47.17 14.40L44.20 14.40L44.26 14L45.25 13.71L48.24 5.88L48.94 5.73L51.69 13.75L52.61 13.96L52.55 14.40L49.40 14.40L49.46 14L50.62 13.71L49.77 11.29L46.87 11.29L45.97 13.75L47.24 13.97L47.17 14.40ZM53.45 8.09L53.39 5.89L60.72 5.89L60.48 8.18L59.99 8.11L59.80 6.38L57.49 6.38L57.49 13.75L58.73 13.97L58.65 14.40L55.25 14.40L55.29 14L56.46 13.74L56.46 6.38L54.24 6.38L53.94 8.16L53.45 8.09Z"></path></g><defs data-v-fde0c5aa=""><linearGradient data-v-fde0c5aa="" gradientTransform="rotate(25)" id="80eb2ba5-381f-4a6d-a447-7f20baa443ac" x1="0%" y1="0%" x2="100%" y2="0%"><stop data-v-fde0c5aa="" offset="0%" stop-color="#13505B" stop-opacity="1"></stop><stop data-v-fde0c5aa="" offset="100%" stop-color="#2EBFA5" stop-opacity="1"></stop></linearGradient></defs><g data-v-fde0c5aa="" id="de7bce53-4ed0-49f0-9eec-62b1c0d12fce" stroke="none" fill="url(#80eb2ba5-381f-4a6d-a447-7f20baa443ac)" transform="matrix(0.949452677432463,0,0,0.949452677432463,102.52736612837685,73.82622307165325)"><path d="M35 47.739C35 40.151 41.151 34 48.739 34H66V23.739C66 16.151 59.849 10 52.261 10H13.739C6.151 10 0 16.151 0 23.739v21.522C0 52.85 6.151 59 13.739 59H35V47.739z"></path><path d="M100 63.262C100 70.85 93.849 77 86.261 77H49.739C42.151 77 36 70.85 36 63.262V48.738C36 41.151 42.151 35 49.739 35H86.26C93.849 35 100 41.151 100 48.738v14.524zM12 57L4 72l27-14z"></path><path d="M64 75h21l6 16z"></path></g><!----></svg>